<?xml version="1.0" ?>

<!-- Uploaded to: SVG Repo, www.svgrepo.com, Generator: SVG Repo Mixer Tools -->
<svg width="800px" height="800px" viewBox="0 0 100 100" version="1.1" xml:space="preserve" xmlns="http://www.w3.org/2000/svg" xmlns:xlink="http://www.w3.org/1999/xlink">



<g id="Layer_1"/>

<g id="Layer_2">

<g>

<path class="st80" d="M11.038,71.354c-4.135,0-7.5,3.375-7.5,7.522c0.394,9.972,14.608,9.97,15,0    C18.538,74.728,15.174,71.354,11.038,71.354z"/>

<path class="st80" d="M96.462,50.778L83.551,38.221c-0.439-0.427-0.562-1.083-0.309-1.64l10.221-22.787L51.178,27.157v-13.51    L5.893,28.825l0.075,38.091l39.255-12.585v12.395L96.462,50.778z M81.419,24.36l-5.971,13.49c-0.265,0.561-0.144,1.229,0.303,1.66    l8.558,8.29l-32.525,9.92l-0.071-24.259C57.301,31.653,75.573,26.251,81.419,24.36z M12.366,57.72L12.33,33.121l32.105-10.093    l0.035,24.598L12.366,57.72z"/>

</g>

</g>

</svg>